<?xml version="1.0" encoding="UTF-8"?>
<svg id="_레이어_2" data-name="레이어 2" xmlns="http://www.w3.org/2000/svg" viewBox="0 0 148.06 159.42">
  <defs>
    <style>
      .cls-1 {
        fill: #f4a0fa;
      }

      .cls-2 {
        fill: #fdcb00;
      }

      .cls-3 {
        fill: #c9a063;
      }

      .cls-4 {
        fill: #afeb26;
      }

      .cls-5 {
        fill: #452018;
      }
    </style>
  </defs>
  <g id="_레이어_1-2" data-name="레이어 1">
    <g>
      <g>
        <rect class="cls-3" x="43.19" y="118.46" width="8.91" height="18.97"/>
        <rect class="cls-3" x="67.73" y="118.46" width="8.91" height="18.97"/>
        <path class="cls-1" d="m18.18,118.46h53.07c31.77,0,57.52-25.75,57.52-57.52v-3.41C128.78,25.75,103.02,0,71.25,0h0C39.48,0,13.73,25.75,13.73,57.52v56.48c0,2.46,1.99,4.45,4.45,4.45Z"/>
        <path class="cls-2" d="m71.25,42.16h68.3c0,18.86-15.29,34.15-34.15,34.15s-34.15-15.29-34.15-34.15Z"/>
        <circle class="cls-5" cx="75.75" cy="25.13" r="3.21"/>
        <circle class="cls-5" cx="59.72" cy="36.28" r="3.21"/>
      </g>
      <path class="cls-4" d="m4.72,159.42c-1.3,0-2.59-.53-3.52-1.58-1.73-1.94-1.56-4.92.38-6.65,18.95-16.89,37.14-24.44,54.08-22.45,7.99.94,13.49,2.39,18.81,3.79,7.4,1.95,14.39,3.79,27.8,3.79h.12c15.75-.01,28.43-12.19,37.69-21.08,1.88-1.8,4.86-1.74,6.66.14,1.8,1.88,1.74,4.86-.14,6.66-9.83,9.43-24.67,23.69-44.21,23.7h-.13c-14.63,0-22.54-2.08-30.2-4.1-5-1.31-10.17-2.68-17.51-3.54-14.15-1.67-29.86,5.11-46.71,20.13-.9.8-2.02,1.2-3.13,1.2Z"/>
    </g>
  </g>
</svg>