<?xml version="1.0" encoding="UTF-8"?>
<svg id="_레이어_2" data-name="레이어 2" xmlns="http://www.w3.org/2000/svg" viewBox="0 0 148.22 169.07">
  <defs>
    <style>
      .cls-1 {
        fill: #fdcb00;
      }

      .cls-2 {
        fill: #ff4074;
      }

      .cls-3 {
        fill: #ab76fb;
      }

      .cls-4 {
        fill: #c9a063;
      }

      .cls-5 {
        fill: #452018;
      }
    </style>
  </defs>
  <g id="_레이어_1-2" data-name="레이어 1">
    <g>
      <g>
        <rect class="cls-4" x="73.48" y="138.24" width="8.91" height="15.77"/>
        <rect class="cls-4" x="98.02" y="138.24" width="8.91" height="15.77"/>
        <path class="cls-2" d="m117.46,140.42h-47.13c-28.22,0-51.09-22.87-51.09-51.09v-38.25C19.24,22.87,42.11,0,70.33,0h0c28.22,0,51.09,22.87,51.09,51.09v85.38c0,2.18-1.77,3.96-3.96,3.96Z"/>
        <path class="cls-1" d="m70.33,66.75h-32.07c0-8.86,7.18-16.04,16.04-16.04,8.86,0,16.04,7.18,16.04,16.04Z"/>
        <circle class="cls-5" cx="49.49" cy="27.62" r="3.21"/>
        <circle class="cls-5" cx="65.52" cy="38.76" r="3.21"/>
      </g>
      <g>
        <rect class="cls-3" x="-1.89" y="153.1" width="37.16" height="8.91" rx="4.45" ry="4.45" transform="translate(-76.54 29.45) rotate(-30)"/>
        <rect class="cls-3" x="26.82" y="153.1" width="37.16" height="8.91" rx="4.45" ry="4.45" transform="translate(-72.69 43.81) rotate(-30)"/>
        <rect class="cls-3" x="55.53" y="153.1" width="37.16" height="8.91" rx="4.45" ry="4.45" transform="translate(-68.85 58.16) rotate(-30)"/>
        <rect class="cls-3" x="84.24" y="153.1" width="37.16" height="8.91" rx="4.45" ry="4.45" transform="translate(-65 72.52) rotate(-30)"/>
        <rect class="cls-3" x="112.95" y="153.1" width="37.16" height="8.91" rx="4.45" ry="4.45" transform="translate(-61.16 86.87) rotate(-30)"/>
      </g>
    </g>
  </g>
</svg>