<svg width="227" height="72" viewBox="0 0 227 72" fill="none" xmlns="http://www.w3.org/2000/svg">
<path d="M50.4418 34.2999V40.3124H29.8716V44.0394C39.0963 44.7395 44.5117 48.0958 44.5528 53.5524C44.5117 59.8944 37.5931 63.3124 26.0828 63.2919C14.5108 63.3124 7.53046 59.8944 7.53046 53.5524C7.53046 48.0752 13.0488 44.6983 22.4177 44.0188V40.3124H2.01211V34.2999H50.4418ZM7.85992 30.7583V12.7001H44.6352V18.4861H15.2726V24.9517H44.9029V30.7583H7.85992ZM15.1079 53.5524C15.0667 56.3527 18.7525 57.7735 26.0828 57.7529C33.2896 57.7735 37.0784 56.3527 37.099 53.5524C37.0784 50.8138 33.2896 49.5577 26.0828 49.5577C18.7525 49.5577 15.0667 50.8138 15.1079 53.5524ZM74.0573 24.7869C74.0573 33.3733 78.4843 42.5363 87.359 46.222L83.3644 52.0492C77.1048 49.4136 72.8013 44.1423 70.4127 37.718C68.0242 44.6983 63.6383 50.5049 57.3787 53.3671L53.1576 47.5398C61.9293 43.607 66.4799 33.7851 66.5005 24.7869V21.5336H55.2373V15.4593H85.1558V21.5336H74.0573V24.7869ZM90.3859 63.3742V10.3321H97.9015V63.3742H90.3859ZM153.515 35.3706V41.2596H105.085V35.3706H125.676V30.8406H110.933V12.7001H147.709V18.4861H118.346V25.0134H147.976V30.8406H132.966V35.3706H153.515ZM110.604 53.6965C110.604 47.3957 117.584 43.8953 129.156 43.8953C140.667 43.8953 147.585 47.3957 147.626 53.6965C147.585 59.8944 140.667 63.4154 129.156 63.436C117.584 63.4154 110.604 59.8944 110.604 53.6965ZM118.181 53.6965C118.14 56.4557 121.826 57.7735 129.156 57.7529C136.363 57.7735 140.152 56.4557 140.172 53.6965C140.152 50.9579 136.363 49.5577 129.156 49.5577C121.826 49.5577 118.14 50.9579 118.181 53.6965ZM177.131 24.7869C177.131 33.3733 181.558 42.5363 190.432 46.222L186.438 52.0492C180.178 49.4136 175.875 44.1423 173.486 37.718C171.098 44.6983 166.712 50.5049 160.452 53.3671L156.231 47.5398C165.003 43.607 169.553 33.7851 169.574 24.7869V21.5336H158.311V15.4593H188.229V21.5336H177.131V24.7869ZM193.459 63.3742V10.3321H200.975V63.3742H193.459Z" fill="black"/>
<circle cx="6.46891" cy="6.46891" r="6.46891" transform="matrix(1 0 0 -1 214.062 63.513)" fill="#FF6161"/>
</svg>
