<svg width="227" height="71" viewBox="0 0 227 71" fill="none" xmlns="http://www.w3.org/2000/svg">
<path d="M50.4492 35.8612V41.7428H29.8928V45.4115H44.8006V61.7752H8.17168V45.4115H22.4971V41.7428H1.94069V35.8612H50.4492ZM15.4509 51.1766V55.8353H37.4049V51.1766H15.4509ZM44.5676 10.3549V24.3892H15.3926V27.4174H45.5576V33.2407H7.99697V19.1482H37.1138V15.9453H7.88051V10.3549H44.5676ZM76.1302 14.8389V28.6403H81.4295V10.122H88.4175V59.9117H81.4295V34.5801H76.1302V49.022H55.0497V14.8389H76.1302ZM61.9795 20.7205V43.1986H69.2004V20.7205H61.9795ZM99.4819 9.36495V62.3575H92.3774V9.36495H99.4819ZM135.296 14.4895V20.3711H124.581C124.697 25.583 128.54 30.9405 136.984 33.066L133.723 38.7729C127.609 37.2297 123.358 33.9104 120.97 29.6885C118.612 34.3471 114.361 38.045 108.159 39.7629L104.665 33.8813C113.109 31.6975 117.068 26.1071 117.185 20.3711H106.528V14.4895H117.185V9.13202H124.697V14.4895H135.296ZM147.117 9.36495V21.2446H154.28V27.3591H147.117V39.5882H139.663V9.36495H147.117ZM147.757 41.8593V47.6826H134.306C135.645 51.5843 140.857 55.3695 150.087 56.5924L147.466 62.241C138.935 61.1055 132.937 57.6988 129.88 53.1566C126.852 57.6697 120.883 60.989 112.468 62.1246L109.789 56.4759C119.107 55.3403 124.26 51.6716 125.629 47.6826H112.06V41.8593H147.757ZM201.158 9.36495V62.3575H193.646V9.36495H201.158ZM185.26 14.8971C185.26 30.9696 179.611 44.3051 160.685 53.2731L156.784 47.3332C170.469 40.8693 176.496 32.4837 177.69 20.7205H159.637V14.8971H185.26Z" fill="black"/>
<circle cx="6.46891" cy="6.46891" r="6.46891" transform="matrix(1 0 0 -1 214.062 63.513)" fill="#FF6161"/>
</svg>
